/* XPM */
static const char * cellundef[] = {
"16 16 46 1",
" 	c None",
".	c #A3A3A3",
"+	c #EAEAEA",
"@	c #F2F2F2",
"#	c #F8F8F8",
"$	c #FCFCFC",
"%	c #F7F7F7",
"&	c #F0F0F0",
"*	c #E6E6E6",
"=	c #DDDDDD",
"-	c #D6D6D6",
";	c #D9D9D9",
">	c #DFDFDF",
",	c #D2D2D2",
"'	c #E0E0E0",
")	c #FAFAFA",
"!	c #EEEEEE",
"~	c #DADADA",
"{	c #C3C3C3",
"]	c #ADADAD",
"^	c #A1A1A1",
"/	c #AAAAAA",
"(	c #C5C5C5",
"_	c #979797",
":	c #3D3D3D",
"<	c #0D0D0D",
"[	c #050505",
"}	c #272727",
"|	c #7C7C7C",
"1	c #0E0E0E",
"2	c #707070",
"3	c #ACACAC",
"4	c #999999",
"5	c #323232",
"6	c #020202",
"7	c #838383",
"8	c #989898",
"9	c #000000",
"0	c #555555",
"a	c #585858",
"b	c #101010",
"c	c #010101",
"d	c #484848",
"e	c #252525",
"f	c #878787",
"g	c #6B6B6B",
"  ............  ",
" .+@#$$%&*=-;>. ",
" .,'&)#!~{]^/(. ",
" .,'&_:<[}|^/(. ",
" .,'&1234567/(  ",
" ....   .890.   ",
" .+       9a    ",
"         99     ",
"        99    . ",
"     )#bc    (. ",
"   ....cd   ... ",
" .+@#$$ef*=-;>. ",
" .,'&)#!~{]^/(. ",
" .,'&)#6g{]^/(. ",
" .,'&)#!~{]^/(. ",
"  ............  "};
