/* XPM */
static const char * cellhg[] = {
"16 16 37 1",
" 	c None",
".	c #A3A3A3",
"+	c #EAEAEA",
"@	c #F2F2F2",
"#	c #F8F8F8",
"$	c #FCFCFC",
"%	c #F7F7F7",
"&	c #F0F0F0",
"*	c #E6E6E6",
"=	c #DDDDDD",
"-	c #D6D6D6",
";	c #D9D9D9",
">	c #DFDFDF",
",	c #D2D2D2",
"'	c #E0E0E0",
")	c #FAFAFA",
"!	c #EEEEEE",
"~	c #DADADA",
"{	c #C3C3C3",
"]	c #ADADAD",
"^	c #A1A1A1",
"/	c #AAAAAA",
"(	c #C5C5C5",
"_	c #C4C4C4",
":	c #FEFEFE",
"<	c #BFBFBF",
"[	c #BEBEBE",
"}	c #BCBCBC",
"|	c #BBBBBB",
"1	c #ABABAB",
"2	c #F4F4F4",
"3	c #A9A9A9",
"4	c #A8A8A8",
"5	c #A5A5A5",
"6	c #A4A4A4",
"7	c #A2A2A2",
"8	c #EFEFEF",
"  ............  ",
" .+@#$$%&*=-;>. ",
" .,'&)#!~{]^/(. ",
" .,'&)#!~{]^/(. ",
" .,'&)#!~{]^/(. ",
" .............. ",
" .+@#$$%&*=-;>. ",
" .,'&)#!~{]^/(. ",
" .,'&)#((_:{{{. ",
" .,'&)#<[[$}}|. ",
" ......}}})}}|. ",
" .+@#$$%%%%%%%. ",
" .,'&)#1//2334. ",
" .,'&)#555@666. ",
" .,'&)#7778^^^. ",
"  ............  "};
