/* XPM */
static const char * cellfg_g[] = {
"16 16 61 1",
" 	c #FFFFFF",
".	c #A3A3A3",
"+	c #EAEAEA",
"@	c #F2F2F2",
"#	c #F8F8F8",
"$	c #FCFCFC",
"%	c #F7F1F1",
"&	c #F3C0C0",
"*	c #EE9999",
"=	c #FD0E0E",
"-	c #E68080",
";	c #E0B2B2",
">	c #DFDFDF",
",	c #D2D2D2",
"'	c #E0E0E0",
")	c #F0F0F0",
"!	c #FAFAFA",
"~	c #F0CFCF",
"{	c #E78C8C",
"]	c #E94646",
"^	c #F31818",
"/	c #E92525",
"(	c #AAAAAA",
"_	c #C7BDBD",
":	c #EEE8E8",
"<	c #F63838",
"[	c #F91414",
"}	c #FE0202",
"|	c #FF0000",
"1	c #EE2323",
"2	c #CFA3A3",
"3	c #FC2626",
"4	c #FF0202",
"5	c #FD0505",
"6	c #CB5C5C",
"7	c #F31616",
"8	c #F60F0F",
"9	c #F21616",
"0	c #E72B2B",
"a	c #B38787",
"b	c #F8CCCC",
"c	c #F2CFCF",
"d	c #F84545",
"e	c #F72929",
"f	c #F34242",
"g	c #E1CFCF",
"h	c #EEEEEE",
"i	c #DCCCCC",
"j	c #C7B7B7",
"k	c #B38181",
"l	c #ADA5A5",
"m	c #C5C5C5",
"n	c #DADADA",
"o	c #C3C3C3",
"p	c #ADADAD",
"q	c #A1A1A1",
"r	c #F7F7F7",
"s	c #E6E6E6",
"t	c #DDDDDD",
"u	c #D6D6D6",
"v	c #D9D9D9",
"  ............  ",
" .+@#$$%&*=-;>. ",
" .,')!#~{]^/(_. ",
" .,')!#:<[}|12. ",
" .,')!#3|4||5|. ",
" ......678|90a. ",
" .+@#$$bcd|efg. ",
" .,')!#hij|klm. ",
" .,')!#hnopq(m. ",
" .,')!#hnopq(m. ",
" .............. ",
" .+@#$$r)stuv>. ",
" .,')!#hnopq(m. ",
" .,')!#hnopq(m. ",
" .,')!#hnopq(m. ",
"  ............  "};
