/* XPM */
static const char * cellfg[] = {
"16 16 23 1",
" 	c None",
".	c #A3A3A3",
"+	c #EAEAEA",
"@	c #F2F2F2",
"#	c #F8F8F8",
"$	c #FCFCFC",
"%	c #F7F7F7",
"&	c #F0F0F0",
"*	c #E6E6E6",
"=	c #DDDDDD",
"-	c #D6D6D6",
";	c #D9D9D9",
">	c #DFDFDF",
",	c #D2D2D2",
"'	c #E0E0E0",
")	c #FAFAFA",
"!	c #EEEEEE",
"~	c #DADADA",
"{	c #C3C3C3",
"]	c #ADADAD",
"^	c #A1A1A1",
"/	c #AAAAAA",
"(	c #C5C5C5",
"  ............  ",
" .+@#$$%&*=-;>. ",
" .,'&)#!~{]^/(. ",
" .,'&)#!~{]^/(. ",
" .,'&)#!~{]^/(. ",
" .............. ",
" .+@#$$%&*=-;>. ",
" .,'&)#!~{]^/(. ",
" .,'&)#!~{]^/(. ",
" .,'&)#!~{]^/(. ",
" .............. ",
" .+@#$$%&*=-;>. ",
" .,'&)#!~{]^/(. ",
" .,'&)#!~{]^/(. ",
" .,'&)#!~{]^/(. ",
"  ............  "};
