/* XPM */
static char *blue_lamp[]={
"16 16 6 1",
". c None",
"# c #008080",
"a c #00c0c0",
"b c #00ffff",
"c c #c0ffff",
"d c #ffffff",
"......####......",
"....########....",
"...###aaaaa##...",
"..###aaaaaaa##..",
".###aaabbaaaa##.",
".##aaabbcbaaaa#.",
"##aaabbccbbaaa##",
"##aabccddcbbaa##",
"##aabbccdccbaa##",
"##aaabbccbbaaa##",
".##aaabcbbaaaa#.",
".###aaabbaaaa##.",
"..###aaaaaaa##..",
"...###aaaaa##...",
"....########....",
"......####......"};
