/* XPM */
static const char * cellh[] = {
"16 16 31 1",
" 	c None",
".	c #369AFF",
"+	c #B9E4FF",
"@	c #CEECFF",
"#	c #E4F4FF",
"$	c #F3FAFF",
"%	c #F1F9FF",
"&	c #E0F3FF",
"*	c #C8EAFF",
"=	c #AEE0FF",
"-	c #97D7FF",
";	c #8AD1FF",
">	c #93D3FB",
",	c #A5D7F6",
"'	c #80CEFF",
")	c #9EDAFF",
"!	c #CAEAFF",
"~	c #E8F6FF",
"{	c #E3F4FF",
"]	c #C2E8FF",
"^	c #92D5FF",
"/	c #5EC1FF",
"(	c #31B0FF",
"_	c #17A5FF",
":	c #31ABF7",
"<	c #71BFF0",
"[	c #84CAE7",
"}	c #FFFFFF",
"|	c #77B1D6",
"1	c #79B3D8",
"2	c #80C2E1",
"  ............  ",
" .+@#$%&*=-;>,. ",
" .')!~{]^/(_:<. ",
" .')!~{]^/(_:<. ",
" .')!~{]^/(_:<. ",
" .............. ",
" .+@#$%&*=-;>,. ",
" .')!~{]^/(_:<. ",
" .')!~{[[[}[[[. ",
" .')!~{|||}|||. ",
" ......111}111. ",
" .+@#$%}}}}}}}. ",
" .')!~{222}222. ",
" .')!~{[[[}[[[. ",
" .')!~{^^^}^^^. ",
"  ............  "};
