/* XPM */
static const char *activelay[]={
"16 16 6 1",
". c None",
"# c #000080",
"c c #0000ff",
"b c #808080",
"a c #c0c0ff",
"d c #ffffff",
"................",
"###############.",
"#aaaaaaaaaaaaa#b",
"#acccccccccccc#b",
"#accccccccaccc#b",
"#accccccccaacc#b",
"#acaaaaaaaadac#b",
"#acdddddddddda#b",
"#acddddddddddd#b",
"#acddddddddddc#b",
"#accccccccddcc#b",
"#accccccccdccc#b",
"#acccccccccccc#b",
"###############b",
".bbbbbbbbbbbbbbb",
"................"};
