/* XPM */
static const char * nolay_xpm[] = {
"16 16 17 1",
" 	c None",
".	c #C3330C",
"+	c #C83304",
"@	c #BA3A17",
"#	c #E24917",
"$	c #E25327",
"%	c #E3552F",
"&	c #E55E3C",
"*	c #E7664A",
"=	c #E56E53",
"-	c #E87B5F",
";	c #DA8470",
">	c #E68068",
",	c #ED937B",
"'	c #F0AA97",
")	c #F0B4A3",
"!	c #F8E3DB",
"                ",
" !)>=***&&&%$;! ",
" '';>--****&%=; ",
" >,,,;>--===&@@ ",
" =,,))>=*=',&@@ ",
" =->'!'**'!;*@@ ",
" *-->)!)'!'&%@@ ",
" &=-=-)!!'%$%@@ ",
" %&===)!!'%+$@@ ",
" %&=-)!)'!'$#.@ ",
" $%*'!'*&'!,#+@ ",
" +%&,'=&$%,-#.. ",
" #.%%&&%$###+.@ ",
" ;=@@@@@$+++.&; ",
" !;@@@@@@@@.@;! ",
"                "};
