/* XPM */
static const char *red_lamp[]={
"16 16 6 1",
". c None",
"# c #800000",
"a c #c00000",
"b c #ff0000",
"c c #ffc0c0",
"d c #ffffff",
"......####......",
"....########....",
"...###aaaaa##...",
"..###aaaaaaa##..",
".###aaabbbaaa##.",
".##aaabbcbaaaa#.",
"##aabbbccbbaaa##",
"##aabccddcbbaa##",
"##aabbccdccbaa##",
"##aaabbccbbbaa##",
".##aaabcbbaaaa#.",
".###aabbbaaaa##.",
"..###aaaaaaa##..",
"...###aaaaa##...",
"....########....",
"......####......"};
