/* XPM */
static const char * cellh_g[] = {
"16 16 59 1",
" 	c #FFFFFF",
".	c #369AFF",
"+	c #B9E4FF",
"@	c #CEECFF",
"#	c #E4F4FF",
"$	c #F3FAFF",
"%	c #F1F9FF",
"&	c #E1EDF9",
"*	c #D3BBCC",
"=	c #C995AA",
"-	c #F80D10",
";	c #B97D99",
">	c #A6ADCE",
",	c #A5D7F6",
"'	c #80CEFF",
")	c #9EDAFF",
"!	c #CAEAFF",
"~	c #E8F6FF",
"{	c #E3F4FF",
"]	c #CACADE",
"^	c #B989A4",
"/	c #C5465C",
"(	c #E21924",
"_	c #C9263B",
":	c #31ABF7",
"<	c #77B8E7",
"[	c #C3E3F9",
"}	c #E33641",
"|	c #EF141A",
"1	c #FD0203",
"2	c #FF0000",
"3	c #D52332",
"4	c #8A9EC7",
"5	c #F52529",
"6	c #FE0202",
"7	c #F90507",
"8	c #8D5790",
"9	c #E41522",
"0	c #EC0E18",
"a	c #E31523",
"b	c #CA2843",
"c	c #597FD3",
"d	c #E5C9D3",
"e	c #D0CADC",
"f	c #E7434C",
"g	c #E92831",
"h	c #DE414D",
"i	c #ABC8E5",
"j	c #C2E8FF",
"k	c #99C8EF",
"l	c #68B5EF",
"m	c #4485CD",
"n	c #37A6EF",
"o	c #71BFF0",
"p	c #84CAE7",
"q	c #77B1D6",
"r	c #79B3D8",
"s	c #80C2E1",
"t	c #92D5FF",
"  ............  ",
" .+@#$%&*=-;>,. ",
" .')!~{]^/(_:<. ",
" .')!~{[}|1234. ",
" .')!~{5262272. ",
" ......8902abc. ",
" .+@#$%def2ghi. ",
" .')!~{jkl2mno. ",
" .')!~{ppp ppp. ",
" .')!~{qqq qqq. ",
" ......rrr rrr. ",
" .+@#$%       . ",
" .')!~{sss sss. ",
" .')!~{ppp ppp. ",
" .')!~{ttt ttt. ",
"  ............  "};
