/* XPM */
static const char * librarydb[] = {
"16 16 212 2",
"  	c None",
". 	c #B6B6B6",
"+ 	c #B8B8B8",
"@ 	c #B9B9B9",
"# 	c #BBBBBB",
"$ 	c #EEEEEE",
"% 	c #F8F8F8",
"& 	c #F7F7F7",
"* 	c #FBFBFB",
"= 	c #CDCDCD",
"- 	c #C2C2C2",
"; 	c #F4F4F4",
"> 	c #EFEFEF",
", 	c #F0F0F0",
"' 	c #E8E8E8",
") 	c #D0D0D0",
"! 	c #D3D3D3",
"~ 	c #D2D3D3",
"{ 	c #E3DAD8",
"] 	c #EBDBD8",
"^ 	c #EBDAD8",
"/ 	c #ECDBD8",
"( 	c #BFBFBF",
"_ 	c #F1F1F1",
": 	c #EDEDED",
"< 	c #ECECEC",
"[ 	c #F2F2F2",
"} 	c #F6F6F6",
"| 	c #F5F5F5",
"1 	c #FBF7F7",
"2 	c #B4D2D8",
"3 	c #78CBD4",
"4 	c #7BCCD5",
"5 	c #7ACAD2",
"6 	c #429BA7",
"7 	c #BEBEBE",
"8 	c #F2F1F1",
"9 	c #FBF1EF",
"0 	c #FCF1EF",
"a 	c #FBF0EE",
"b 	c #FAEFED",
"c 	c #F9EFED",
"d 	c #FCECE9",
"e 	c #299ABC",
"f 	c #12B3DD",
"g 	c #10ADD6",
"h 	c #11AED8",
"i 	c #21B5DD",
"j 	c #EDECEB",
"k 	c #CEDCDE",
"l 	c #CBDEE0",
"m 	c #CBDDE0",
"n 	c #CFDEE0",
"o 	c #CFDFE1",
"p 	c #C6D6D7",
"q 	c #189BC6",
"r 	c #2EBBEB",
"s 	c #2AB6E6",
"t 	c #2BBCEC",
"u 	c #1986A9",
"v 	c #CBC5C3",
"w 	c #AEC7D0",
"x 	c #239FBF",
"y 	c #1DA1C0",
"z 	c #1EA1C0",
"A 	c #0E9EC1",
"B 	c #0E9CBF",
"C 	c #0E9CC0",
"D 	c #0C9BBE",
"E 	c #16A9D8",
"F 	c #25ADD8",
"G 	c #27ADD8",
"H 	c #28B1DC",
"I 	c #1780A2",
"J 	c #DCCCC8",
"K 	c #63A6BB",
"L 	c #0FA2D1",
"M 	c #1CA2CD",
"N 	c #1DA3CF",
"O 	c #1BA2CD",
"P 	c #5EAFCA",
"Q 	c #5EB8D8",
"R 	c #5FBAD9",
"S 	c #62BDDB",
"T 	c #60B6D1",
"U 	c #23A0C8",
"V 	c #21A4CE",
"W 	c #24A4CE",
"X 	c #25A8D2",
"Y 	c #167D9E",
"Z 	c #DCCCC7",
"` 	c #5BA0B6",
" .	c #1394BF",
"..	c #219BC3",
"+.	c #239CC3",
"@.	c #1B9BC6",
"#.	c #DDC5BC",
"$.	c #DDA184",
"%.	c #DB9578",
"&.	c #D88B70",
"*.	c #D9B7AC",
"=.	c #84BDCF",
"-.	c #1395BF",
";.	c #239BC3",
">.	c #239EC7",
",.	c #157899",
"'.	c #DACBC6",
").	c #5C9DB2",
"!.	c #118BB3",
"~.	c #1E92B7",
"{.	c #2193B8",
"].	c #1291BC",
"^.	c #DFCCC1",
"/.	c #E17328",
"(.	c #D95E1B",
"_.	c #CD4810",
":.	c #C84D29",
"<.	c #EAD6CF",
"[.	c #3A9CBC",
"}.	c #1B92B8",
"|.	c #1F94BA",
"1.	c #137493",
"2.	c #D9CBC6",
"3.	c #5A99AD",
"4.	c #0E81A7",
"5.	c #1B88AB",
"6.	c #1586AA",
"7.	c #50A2BF",
"8.	c #F8D0B6",
"9.	c #E67925",
"0.	c #F3C9B2",
"a.	c #EEBCA5",
"b.	c #BD1C00",
"c.	c #E79580",
"d.	c #9AC9D9",
"e.	c #0B80A6",
"f.	c #1C8AAE",
"g.	c #12708E",
"h.	c #D9CAC6",
"i.	c #5895A8",
"j.	c #0B7699",
"k.	c #187D9E",
"l.	c #067499",
"m.	c #96BDCD",
"n.	c #FFBA8E",
"o.	c #E8741B",
"p.	c #FBF0E9",
"q.	c #F4D6CA",
"r.	c #BF2100",
"s.	c #DC6A4F",
"t.	c #C1DDE6",
"u.	c #057093",
"v.	c #187FA1",
"w.	c #106A88",
"x.	c #D8CAC6",
"y.	c #5792A4",
"z.	c #086D8D",
"A.	c #167593",
"B.	c #127492",
"C.	c #3588A4",
"D.	c #F2D4C0",
"E.	c #E67724",
"F.	c #ECA882",
"G.	c #E8A07E",
"H.	c #BE1E00",
"I.	c #EDAD9C",
"J.	c #79AFBF",
"K.	c #086E8E",
"L.	c #167694",
"M.	c #0F6783",
"N.	c #D7CAC5",
"O.	c #548EA0",
"P.	c #066583",
"Q.	c #136D89",
"R.	c #166E8A",
"S.	c #076C8D",
"T.	c #E0CBBE",
"U.	c #E37935",
"V.	c #DC5E1B",
"W.	c #CF450E",
"X.	c #D47052",
"Y.	c #D7D5D4",
"Z.	c #1B718C",
"`.	c #136D8A",
" +	c #146E8A",
".+	c #0E637E",
"++	c #D6C6C1",
"@+	c #5A8B9B",
"#+	c #055F7C",
"$+	c #116681",
"%+	c #136782",
"&+	c #0D6481",
"*+	c #CFC6C2",
"=+	c #CCB1A5",
"-+	c #CDB0A4",
";+	c #CEADA1",
">+	c #C5BEBC",
",+	c #518A9C",
"'+	c #126681",
")+	c #0D5F7A",
"!+	c #58808D",
"~+	c #0A5D77",
"{+	c #0D5F79",
"]+	c #0C5E78",
"^+	c #2D7086",
"/+	c #2D768F",
"(+	c #2D7790",
"_+	c #2F7992",
":+	c #286F85",
"<+	c #075A74",
"[+	c #0D5E79",
"}+	c #0D5E78",
"  . + + @                       ",
"# $ % & * =                     ",
"- ; > > , ' ) ! ! ~ { ] ^ /     ",
"( _ : : < [ } | | 1 2 3 4 5 6   ",
"7 8 9 0 0 a b b c d e f g h i   ",
"7 j k l m m n n o p q r s s t u ",
"v w x y z z A B C D E F G G H I ",
"J K L M N O P Q R S T U V W X Y ",
"Z `  ...+.@.#.$.%.&.*.=.-.;.>.,.",
"'.).!.~.{.].^./.(._.:.<.[.}.|.1.",
"2.3.4.5.6.7.8.9.0.a.b.c.d.e.f.g.",
"h.i.j.k.l.m.n.o.p.q.r.s.t.u.v.w.",
"x.y.z.A.B.C.D.E.F.G.H.I.J.K.L.M.",
"N.O.P.Q.R.S.T.U.V.W.X.Y.Z.`. +.+",
"++@+#+$+%+&+*+=+-+;+>+,+#+'+$+)+",
"  !+~+{+{+]+^+/+(+_+:+<+{+[+}+  "};
