/* XPM */
static char * toped16x16_xpm[] = {
"16 16 121 2",
"  	c None",
". 	c #E6CA15",
"+ 	c #E5CA15",
"@ 	c #80761C",
"# 	c #69672D",
"$ 	c #80781E",
"% 	c #E4CA16",
"& 	c #DBC014",
"* 	c #CDB415",
"= 	c #CDB514",
"- 	c #CFB614",
"; 	c #CBBA18",
"> 	c #474F24",
", 	c #667D7E",
"' 	c #526337",
") 	c #C6BA1A",
"! 	c #CDB414",
"~ 	c #CCB414",
"{ 	c #DBC114",
"] 	c #A5831B",
"^ 	c #713A3A",
"/ 	c #7B4040",
"( 	c #793F40",
"_ 	c #534C2B",
": 	c #214A1D",
"< 	c #677E7E",
"[ 	c #386F30",
"} 	c #505227",
"| 	c #783F3F",
"1 	c #7B4141",
"2 	c #773E3E",
"3 	c #B18723",
"4 	c #E6CA16",
"5 	c #B38720",
"6 	c #342D2D",
"7 	c #684242",
"8 	c #433636",
"9 	c #82744E",
"0 	c #265421",
"a 	c #677D7E",
"b 	c #3C7036",
"c 	c #665C3A",
"d 	c #4E3C3C",
"e 	c #674141",
"f 	c #393333",
"g 	c #D79633",
"h 	c #4A3636",
"i 	c #AA6868",
"j 	c #634444",
"k 	c #918B63",
"l 	c #2B5A25",
"m 	c #406F3B",
"n 	c #7A724E",
"o 	c #7A5657",
"p 	c #AA6767",
"q 	c #3F2F2F",
"r 	c #B28720",
"s 	c #353D3D",
"t 	c #575858",
"u 	c #454E4E",
"v 	c #9E9F77",
"w 	c #305D2A",
"x 	c #437041",
"y 	c #8C8263",
"z 	c #3E4747",
"A 	c #525757",
"B 	c #3E4444",
"C 	c #2D3737",
"D 	c #516363",
"E 	c #3F4D4D",
"F 	c #96946E",
"G 	c #2E5C29",
"H 	c #41703F",
"I 	c #82775B",
"J 	c #303A3A",
"K 	c #394646",
"L 	c #394040",
"M 	c #453333",
"N 	c #975858",
"O 	c #533636",
"P 	c #887E5A",
"Q 	c #295724",
"R 	c #3E703A",
"S 	c #6F6346",
"T 	c #6C4848",
"U 	c #8E5151",
"V 	c #3B2C2C",
"W 	c #3F3434",
"X 	c #965A5A",
"Y 	c #4D3535",
"Z 	c #7B6F44",
"` 	c #255220",
" .	c #3A6F35",
"..	c #5A4F31",
"+.	c #5D4444",
"@.	c #915354",
"#.	c #3E3434",
"$.	c #D69633",
"%.	c #A7891C",
"&.	c #4F3729",
"*.	c #593E2E",
"=.	c #583D2E",
"-.	c #5D5428",
";.	c #25491E",
">.	c #3A6D30",
",.	c #494C1F",
"'.	c #53392D",
").	c #573B2E",
"!.	c #593B2E",
"~.	c #B88E26",
"{.	c #DFCC1A",
"].	c #4E5023",
"^.	c #526464",
"/.	c #586434",
"(.	c #D7CC1D",
"_.	c #E5C915",
":.	c #E6CA14",
"<.	c #958614",
"[.	c #7B7216",
"}.	c #948715",
"|.	c #E6C914",
"                                ",
"            . . . .             ",
"          . + @ # $ %           ",
"  . & * = - ; > , ' ) = ! ~ {   ",
"  . ] ^ / ( _ : < [ } | 1 2 3   ",
"  4 5 6 7 8 9 0 a b c d e f g   ",
"  4 5 h i j k l < m n o p q g   ",
"  4 r s t u v w < x y z A B g   ",
"  4 5 C D E F G < H I J K L g   ",
"  4 5 M N O P Q < R S T U V g   ",
"  4 r W X Y Z ` <  ...+.@.#.$.  ",
"  . %.&.*.=.-.;.< >.,.'.).!.~.  ",
"  . . . . . {.].^./.(._.. . :.  ",
"          . . <.[.}..           ",
"            :.:.:.|.            ",
"                                "};
