/* XPM */
static const char *lock[]={
"16 16 13 1",
". c None",
"c c #c00000",
"b c #cf0000",
"# c #df0000",
"i c #df3f3f",
"h c #df7f7f",
"a c #ef0000",
"j c #ef3f3f",
"d c #ef7f7f",
"g c #efbfbf",
"f c #ff7f7f",
"k c #ffbfbf",
"e c #ffffff",
"................",
"..#a########a#..",
".#bccccccccccb#.",
".acccbdeefbccca.",
".#cccgehdefccc#.",
".#cc#eiccjebcc#.",
".#ccbhbccbhbcc#.",
".#cckeeeeeegcc#.",
".#ccekffffkecc#.",
".#ccefccccfecc#.",
".#ccef####fecc#.",
".#cceeeeeeeecc#.",
".accihhhhhhicc#.",
".#bccccccccccb#.",
"..#a########a#..",
"................"};
