/* XPM */
static char * toped32x32_xpm[] = {
"32 32 322 2",
"  	c None",
". 	c #E6CA14",
"+ 	c #E6CA15",
"@ 	c #9A8A13",
"# 	c #948414",
"$ 	c #9E8E13",
"% 	c #E1CA17",
"& 	c #2D2E1A",
"* 	c #3A4848",
"= 	c #3D4B4B",
"- 	c #3C494A",
"; 	c #353D22",
"> 	c #E0CC19",
", 	c #E3CB16",
"' 	c #D1D326",
") 	c #292916",
"! 	c #425050",
"~ 	c #718A8B",
"{ 	c #576C6C",
"] 	c #363E25",
"^ 	c #C4D72E",
"/ 	c #E2CB19",
"( 	c #9D8B12",
"_ 	c #978413",
": 	c #988414",
"< 	c #998414",
"[ 	c #998513",
"} 	c #988513",
"| 	c #958712",
"1 	c #93A315",
"2 	c #1D2C18",
"3 	c #3D4949",
"4 	c #748E8E",
"5 	c #596D6D",
"6 	c #274029",
"7 	c #92B31A",
"8 	c #968713",
"9 	c #9A8614",
"0 	c #9B8614",
"a 	c #9B8515",
"b 	c #9A8515",
"c 	c #9A8514",
"d 	c #AE9913",
"e 	c #53331C",
"f 	c #914242",
"g 	c #A64C4C",
"h 	c #A74D4D",
"i 	c #984748",
"j 	c #483627",
"k 	c #1E7108",
"l 	c #162E14",
"m 	c #254323",
"n 	c #3BBB13",
"o 	c #4B3126",
"p 	c #9C4747",
"q 	c #B05151",
"r 	c #B25252",
"s 	c #B25253",
"t 	c #B15152",
"u 	c #A54D4D",
"v 	c #6C4626",
"w 	c #E6CA16",
"x 	c #793E29",
"y 	c #422F2F",
"z 	c #4C3C3C",
"A 	c #4C3C3D",
"B 	c #473333",
"C 	c #AF6A5B",
"D 	c #329017",
"E 	c #172F15",
"F 	c #264324",
"G 	c #4FBD26",
"H 	c #7C423C",
"I 	c #362B2B",
"J 	c #413838",
"K 	c #403838",
"L 	c #413939",
"M 	c #3A2F2F",
"N 	c #BE6646",
"O 	c #753C27",
"P 	c #1C2121",
"Q 	c #3F3636",
"R 	c #4C3636",
"S 	c #4B3636",
"T 	c #362F2F",
"U 	c #282F2F",
"V 	c #C57C6E",
"W 	c #41A724",
"X 	c #173015",
"Y 	c #274325",
"Z 	c #5BC134",
"` 	c #844843",
" .	c #1B2021",
"..	c #433737",
"+.	c #583B3B",
"@.	c #523636",
"#.	c #3E3333",
"$.	c #2A3333",
"%.	c #C86A4B",
"&.	c #743D28",
"*.	c #1C2222",
"=.	c #8F494A",
"-.	c #995555",
";.	c #8E4D4D",
">.	c #673232",
",.	c #222727",
"'.	c #CC887B",
").	c #4DB931",
"!.	c #183016",
"~.	c #284326",
"{.	c #67CE41",
"].	c #92554E",
"^.	c #1C2323",
"/.	c #915252",
"(.	c #A56161",
"_.	c #804545",
":.	c #623232",
"<.	c #222929",
"[.	c #743C28",
"}.	c #1D2323",
"|.	c #936263",
"1.	c #845656",
"2.	c #6E3E3E",
"3.	c #252B2B",
"4.	c #D19487",
"5.	c #59CB3F",
"6.	c #193017",
"7.	c #596D6E",
"8.	c #284327",
"9.	c #6FD44C",
"0.	c #9F625A",
"a.	c #1D2324",
"b.	c #9E6969",
"c.	c #B07C7C",
"d.	c #815050",
"e.	c #603333",
"f.	c #1D2424",
"g.	c #895E5F",
"h.	c #C67070",
"i.	c #C06868",
"j.	c #765252",
"k.	c #2B3232",
"l.	c #D79F92",
"m.	c #66D94D",
"n.	c #1A3018",
"o.	c #294328",
"p.	c #79D85D",
"q.	c #AA6C67",
"r.	c #775454",
"s.	c #BE7475",
"t.	c #B76061",
"u.	c #663F3F",
"v.	c #262D2E",
"w.	c #C86A4C",
"x.	c #E5CA16",
"y.	c #1B2020",
"z.	c #516464",
"A.	c #394646",
"B.	c #435252",
"C.	c #DCA99C",
"D.	c #73E75C",
"E.	c #294329",
"F.	c #83E06A",
"G.	c #B87A74",
"H.	c #1B2121",
"I.	c #475757",
"J.	c #3C4B4B",
"K.	c #425151",
"L.	c #2C3435",
"M.	c #733C28",
"N.	c #576A6A",
"O.	c #748F8F",
"P.	c #627979",
"Q.	c #DAA89C",
"R.	c #75E75F",
"S.	c #1B3019",
"T.	c #3C4949",
"U.	c #83DF6C",
"V.	c #B97C76",
"W.	c #191E1E",
"X.	c #546767",
"Y.	c #6A8282",
"Z.	c #6A8182",
"`.	c #637A7A",
" +	c #2B3434",
".+	c #4A5959",
"++	c #4E5F5F",
"@+	c #445353",
"#+	c #D49D91",
"$+	c #67D850",
"%+	c #77D45E",
"&+	c #AB6F6A",
"*+	c #384343",
"=+	c #333D3E",
"-+	c #3D4A4A",
";+	c #2B3435",
">+	c #1A2020",
",+	c #665555",
"'+	c #794E4F",
")+	c #714747",
"!+	c #412E2E",
"~+	c #272E2E",
"{+	c #CF9387",
"]+	c #5BC943",
"^+	c #284328",
"/+	c #6FCD53",
"(+	c #9E625D",
"_+	c #4D3838",
":+	c #6C4040",
"<+	c #633838",
"[+	c #3B2627",
"}+	c #262D2D",
"|+	c #914D4D",
"1+	c #965656",
"2+	c #834B4B",
"3+	c #643232",
"4+	c #C9887C",
"5+	c #4FB835",
"6+	c #65C546",
"7+	c #915651",
"8+	c #935656",
"9+	c #A46464",
"0+	c #7D4545",
"a+	c #603232",
"b+	c #905151",
"c+	c #9E6666",
"d+	c #834F4F",
"e+	c #623030",
"f+	c #C37F70",
"g+	c #44AA29",
"h+	c #274326",
"i+	c #5BBD38",
"j+	c #844A45",
"k+	c #925757",
"l+	c #A56A6A",
"m+	c #855050",
"n+	c #633434",
"o+	c #733D28",
"p+	c #1E2424",
"q+	c #755252",
"r+	c #A95F5F",
"s+	c #A35354",
"t+	c #563131",
"u+	c #242929",
"v+	c #BC7A61",
"w+	c #3BA41C",
"x+	c #264325",
"y+	c #51B42B",
"z+	c #753E39",
"A+	c #694848",
"B+	c #A85E5E",
"C+	c #A25253",
"D+	c #614141",
"E+	c #282F30",
"F+	c #C86A4A",
"G+	c #643622",
"H+	c #141818",
"I+	c #232A2A",
"J+	c #202828",
"K+	c #1F2727",
"L+	c #1E2222",
"M+	c #A2614A",
"N+	c #2C8810",
"O+	c #264323",
"P+	c #44AC1C",
"Q+	c #5A2D29",
"R+	c #131717",
"S+	c #1F2626",
"T+	c #1C2122",
"U+	c #B86141",
"V+	c #E4CA17",
"W+	c #4B341F",
"X+	c #5B302F",
"Y+	c #6C3836",
"Z+	c #6E3A37",
"`+	c #6E3937",
" @	c #6D3937",
".@	c #6F3A36",
"+@	c #503727",
"@@	c #216A0C",
"#@	c #162D15",
"$@	c #254222",
"%@	c #3AAC12",
"&@	c #30211D",
"*@	c #5B3032",
"=@	c #6C383A",
"-@	c #6E393B",
";@	c #6F393B",
">@	c #6E393A",
",@	c #6F3A3B",
"'@	c #6E4A2C",
")@	c #E6CB19",
"!@	c #E6CB1B",
"~@	c #E5CB1B",
"{@	c #CFD42E",
"]@	c #272B18",
"^@	c #718A8A",
"/@	c #323F27",
"(@	c #C2D731",
"_@	c #E7CC1B",
":@	c #E5CA15",
"<@	c #DDCC1B",
"[@	c #DDCD1C",
"}@	c #2A2A16",
"|@	c #455353",
"1@	c #4A5B5B",
"2@	c #363E24",
"3@	c #D7CE1E",
"4@	c #CECB22",
"5@	c #E3C815",
"6@	c #E5C915",
"7@	c #E5C914",
"8@	c #262610",
"9@	c #161C1B",
"0@	c #171D1B",
"a@	c #2C3317",
"b@	c #E5CA14",
"c@	c #DFC614",
"d@	c #DDC615",
"e@	c #DEC614",
"f@	c #E6C915",
"g@	c #E6C914",
"                                                                ",
"                                                                ",
"                        . . . + . . .                           ",
"                      . + + + + + + + +                         ",
"                    + + + @ # # # $ + + +                       ",
"        . . + + . + + % + & * = - ; + > + + . + + .             ",
"    + + + + + + + + + , ' ) ! ~ { ] ^ / + + + + + + + + +       ",
"  + + + ( _ : < < [ } | 1 2 3 4 5 6 7 8 9 0 a b b c d + + +     ",
"  + + + e f g h h g i j k l 3 4 5 m n o p q r s t u v + + +     ",
"  + + w x y z z z A B C D E 3 4 5 F G H I J K K L M N w + +     ",
"  + + w O P Q R S T U V W X 3 4 5 Y Z `  ...+.@.#.$.%.w + +     ",
"  + + w &.*.=.-.;.>.,.'.).!.3 4 5 ~.{.].^./.(._.:.<.%.w + +     ",
"  + + w [.}./.|.1.2.3.4.5.6.3 4 7.8.9.0.a.b.c.d.e.<.%.w + +     ",
"  + + w &.f.g.h.i.j.k.l.m.n.3 4 5 o.p.q.*.r.s.t.u.v.w.w + +     ",
"  + + x.&.y.z.A.A.B.k.C.D.n.3 4 5 E.F.G.H.I.= J.K.L.%.w + +     ",
"  + + w M.y.N.O.~ P.k.Q.R.S.T.4 5 E.U.V.W.X.Y.Z.`. +%.w + +     ",
"  + + w M.y..+++@+I.k.#+$+n.3 4 5 E.%+&+W.*+=+=+-+;+w.w + +     ",
"  + + w [.>+,+'+)+!+~+{+]+6.3 4 5 ^+/+(+>+_+:+<+[+}+%.w + +     ",
"  + + w [.H.|+1+2+3+,.4+5+6.3 4 5 8.6+7+f.8+9+0+a+<.%.w + +     ",
"  + + w &.*.b+c+d+e+,.f+g+!.3 4 5 h+i+j+H.k+l+m+n+<.%.x.+ +     ",
"  + + w o+p+q+r+s+t+u+v+w+E 3 4 5 x+y+z+f.A+B+C+D+E+F+x.+ +     ",
"  + + x.G+H+I+J+K+p+L+M+N+E 3 4 5 O+P+Q+R+S+}.}.H.T+U+x.+ +     ",
"  + + V+W+X+Y+Z+`+ @.@+@@@#@3 4 5 $@%@&@*@=@-@;@>@,@'@x.+ +     ",
"  + + + )@!@!@!@!@!@!@~@{@]@3 ^@5 /@(@_@!@!@!@!@!@!@)@:@+ +     ",
"    + + + + w w w + + <@[@}@*+|@1@2@3@4@5@6@+ w w + + + + +     ",
"    7@. . + + + + + + 7@+ 8@9@9@0@a@w b@+ + + + + + + . b@      ",
"                  . + + + c@d@d@d@e@+ + + + 7@                  ",
"                    . + + + + w + + + + f@7@                    ",
"                        + + . + + . + g@                        ",
"                                                                ",
"                                                                ",
"                                                                "};
