/* XPM */
static const char * targetdb[] = {
"16 16 215 2",
"  	c None",
". 	c #BDBDBD",
"+ 	c #B8B8B8",
"@ 	c #B7B7B7",
"# 	c #BABABA",
"$ 	c #C3C3C3",
"% 	c #EDEDED",
"& 	c #F8F8F8",
"* 	c #F7F7F7",
"= 	c #FBFBFB",
"- 	c #D3D3D3",
"; 	c #C2C2C2",
"> 	c #F4F4F4",
", 	c #EFEFEF",
"' 	c #F0F0F0",
") 	c #E7E7E7",
"! 	c #D1D1D1",
"~ 	c #D2D3D3",
"{ 	c #E3DAD8",
"] 	c #EBDBD8",
"^ 	c #EADAD7",
"/ 	c #EEDEDB",
"( 	c #BFBFBF",
"_ 	c #F1F1F1",
": 	c #ECECEC",
"< 	c #F2F2F2",
"[ 	c #F6F6F6",
"} 	c #F5F5F5",
"| 	c #FBF7F7",
"1 	c #B4D2D8",
"2 	c #78CBD4",
"3 	c #7BCCD5",
"4 	c #77C9D1",
"5 	c #5AA9B3",
"6 	c #BEBEBE",
"7 	c #F2F1F1",
"8 	c #FBF1EF",
"9 	c #FCF1EF",
"0 	c #FBF0EE",
"a 	c #FAEFED",
"b 	c #F9EFED",
"c 	c #FCECE9",
"d 	c #299ABC",
"e 	c #12B3DD",
"f 	c #10ADD6",
"g 	c #0FAED8",
"h 	c #25B6DE",
"i 	c #54A5BE",
"j 	c #EDECEB",
"k 	c #CEDCDE",
"l 	c #CBDEE0",
"m 	c #CBDDE0",
"n 	c #C7DEE2",
"o 	c #C6DDE1",
"p 	c #BDD5D9",
"q 	c #139CC8",
"r 	c #2FBCEC",
"s 	c #2AB6E6",
"t 	c #28BBEC",
"u 	c #1584A8",
"v 	c #CBC5C3",
"w 	c #AEC7D0",
"x 	c #239FBF",
"y 	c #1DA1C0",
"z 	c #1EA1C0",
"A 	c #289EBA",
"B 	c #2AA1BC",
"C 	c #2BA1BD",
"D 	c #2A9FBB",
"E 	c #25A7D0",
"F 	c #1FABD7",
"G 	c #27ADD8",
"H 	c #28B1DC",
"I 	c #147FA1",
"J 	c #DCCCC8",
"K 	c #63A6BB",
"L 	c #0FA2D1",
"M 	c #1CA2CD",
"N 	c #1DA3CF",
"O 	c #19A2CF",
"P 	c #95B8C4",
"Q 	c #8EB0BC",
"R 	c #8AAFBC",
"S 	c #92B6C1",
"T 	c #A6C5CF",
"U 	c #3FA5C6",
"V 	c #1CA2CE",
"W 	c #24A4CE",
"X 	c #25A8D2",
"Y 	c #167D9E",
"Z 	c #DCCCC7",
"` 	c #5BA0B6",
" .	c #1394BF",
"..	c #219BC3",
"+.	c #249CC3",
"@.	c #1F9AC3",
"#.	c #CCD2D2",
"$.	c #60B1C9",
"%.	c #60A8BF",
"&.	c #4991A8",
"*.	c #8DAAB4",
"=.	c #C5CFD2",
"-.	c #1D96BD",
";.	c #229CC4",
">.	c #239EC7",
",.	c #157899",
"'.	c #DACBC6",
").	c #5C9DB2",
"!.	c #118BB3",
"~.	c #1E92B7",
"{.	c #1F93B8",
"].	c #2A92B4",
"^.	c #C2DCE0",
"/.	c #18AAD4",
"(.	c #99D4E8",
"_.	c #0279A0",
":.	c #005B7C",
"<.	c #C5D0D2",
"[.	c #6BAEC3",
"}.	c #168FB7",
"|.	c #1F94BA",
"1.	c #137493",
"2.	c #D9CBC6",
"3.	c #5A99AD",
"4.	c #0E81A7",
"5.	c #1B88AB",
"6.	c #0D82A8",
"7.	c #8AB6C4",
"8.	c #A2D8E5",
"9.	c #11A7D5",
"0.	c #8ECBDF",
"a.	c #9DC8D5",
"b.	c #006080",
"c.	c #6397A7",
"d.	c #C0D7DE",
"e.	c #087DA3",
"f.	c #1C8AAE",
"g.	c #12708E",
"h.	c #D9CAC6",
"i.	c #5895A8",
"j.	c #0B7699",
"k.	c #187D9E",
"l.	c #0A779B",
"m.	c #83ABB8",
"n.	c #A4D9E5",
"o.	c #0CA4D3",
"p.	c #48ABCC",
"q.	c #CBE1E8",
"r.	c #6C9CAC",
"s.	c #B7CED6",
"t.	c #057295",
"u.	c #187FA0",
"v.	c #106A88",
"w.	c #D8CAC5",
"x.	c #5792A4",
"y.	c #086D8D",
"z.	c #167593",
"A.	c #177694",
"B.	c #1F7591",
"C.	c #C2DBDE",
"D.	c #0CA4D0",
"E.	c #36A9CE",
"F.	c #2D8EAE",
"G.	c #005E7E",
"H.	c #CFD6D8",
"I.	c #5592A6",
"J.	c #0F7291",
"K.	c #167694",
"L.	c #0F6783",
"M.	c #D7CAC5",
"N.	c #538DA0",
"O.	c #056483",
"P.	c #146D89",
"Q.	c #166E8A",
"R.	c #116A87",
"S.	c #CED4D5",
"T.	c #70B5CA",
"U.	c #65A9BF",
"V.	c #5999AE",
"W.	c #A1B8C0",
"X.	c #AEBCC1",
"Y.	c #096683",
"Z.	c #156E8A",
"`.	c #136D8A",
" +	c #09607B",
".+	c #DCCEC9",
"++	c #588999",
"@+	c #055F7C",
"#+	c #116681",
"$+	c #126681",
"%+	c #0E6480",
"&+	c #8AA1A9",
"*+	c #879AA2",
"=+	c #889CA4",
"-+	c #8CA1A8",
";+	c #8DA5AD",
">+	c #216C84",
",+	c #0B637F",
"'+	c #0E647F",
")+	c #226D85",
"!+	c #809FA8",
"~+	c #1E6A82",
"{+	c #0B5D77",
"]+	c #0D5F79",
"^+	c #0D5E79",
"/+	c #126078",
"(+	c #13617B",
"_+	c #13617A",
":+	c #14617A",
"<+	c #085A74",
"[+	c #075C77",
"}+	c #0E5F79",
"|+	c #095C76",
"1+	c #236D84",
"2+	c #85ADBA",
"  . + @ #                       ",
"$ % & * = -                     ",
"; > , , ' ) ! - - ~ { ] ^ /     ",
"( _ % % : < [ } } | 1 2 3 4 5   ",
"6 7 8 9 9 0 a a b c d e f g h i ",
"6 j k l m m n o n p q r s s t u ",
"v w x y z z A B C D E F G G H I ",
"J K L M N O P Q R S T U V W X Y ",
"Z `  ...+.@.#.$.%.&.*.=.-.;.>.,.",
"'.).!.~.{.].^./.(._.:.<.[.}.|.1.",
"2.3.4.5.6.7.8.9.0.a.b.c.d.e.f.g.",
"h.i.j.k.l.m.n.o.p.q.b.r.s.t.u.v.",
"w.x.y.z.A.B.C.D.E.F.G.H.I.J.K.L.",
"M.N.O.P.Q.R.S.T.U.V.W.X.Y.Z.`. +",
".+++@+#+$+%+&+*+=+-+;+>+,+#+'+)+",
"  !+~+{+]+^+/+(+_+:+<+[+}+|+1+2+"};
