/* XPM */
static const char * cell_expanded[] = {
"16 16 110 2",
"  	c None",
". 	c #3274DB",
"+ 	c #3273DB",
"@ 	c #3373DB",
"# 	c #3274DC",
"$ 	c #3170D6",
"% 	c #F5FBFD",
"& 	c #F5F9FD",
"* 	c #306DD2",
"= 	c #E8F5FD",
"- 	c #E8F6FD",
"; 	c #E9F5FD",
"> 	c #5F7DB1",
", 	c #316DD1",
"' 	c #306ED1",
") 	c #316ED2",
"! 	c #306DD1",
"~ 	c #306ACC",
"{ 	c #DBF0FD",
"] 	c #DAEEFD",
"^ 	c #DBEEFD",
"/ 	c #DAF0FD",
"( 	c #2F66C6",
"_ 	c #CBE8FD",
": 	c #CBE9FD",
"< 	c #235FCE",
"[ 	c #255FD1",
"} 	c #2E63C0",
"| 	c #B9E2FD",
"1 	c #BCE2FD",
"2 	c #B9E1FD",
"3 	c #BCE1FD",
"4 	c #1D54CC",
"5 	c #7DAFE8",
"6 	c #F0F6FC",
"7 	c #FDFDFD",
"8 	c #FCFCFD",
"9 	c #C9E3FD",
"0 	c #356ED8",
"a 	c #2D61BD",
"b 	c #A9DAFD",
"c 	c #A9DBFD",
"d 	c #245ECF",
"e 	c #235DD1",
"f 	c #82B6E9",
"g 	c #8EBEFD",
"h 	c #89BEFD",
"i 	c #89BDFD",
"j 	c #8DBFFD",
"k 	c #2761D2",
"l 	c #2C5EB8",
"m 	c #8EC8F9",
"n 	c #275FCF",
"o 	c #7AB6FD",
"p 	c #FDFCFD",
"q 	c #F0F6FD",
"r 	c #64A6FD",
"s 	c #6BAAFD",
"t 	c #6BA9FD",
"u 	c #64A2F9",
"v 	c #1E54C8",
"w 	c #2B5AB1",
"x 	c #6FB0F2",
"y 	c #285FCF",
"z 	c #55A0FD",
"A 	c #4F98FD",
"B 	c #4F97FD",
"C 	c #5098FD",
"D 	c #5099FD",
"E 	c #4487F3",
"F 	c #194ABE",
"G 	c #2A58AE",
"H 	c #5290E3",
"I 	c #265ED3",
"J 	c #3C90FD",
"K 	c #3988FD",
"L 	c #3987FD",
"M 	c #3A8DFD",
"N 	c #2D70E6",
"O 	c #1841B2",
"P 	c #2955A8",
"Q 	c #3C75D3",
"R 	c #1F5DD8",
"S 	c #2983FD",
"T 	c #287BFD",
"U 	c #287CFD",
"V 	c #277BFD",
"W 	c #2982FD",
"X 	c #1F5BD8",
"Y 	c #1539AC",
"Z 	c #2852A3",
"` 	c #1C4EBF",
" .	c #9EB1E1",
"..	c #E0D6DB",
"+.	c #3755B1",
"@.	c #28509F",
"#.	c #143FB2",
"$.	c #C3CFED",
"%.	c #D2CCD5",
"&.	c #2340A8",
"*.	c #274D9B",
"=.	c #092097",
"-.	c #9BA0C3",
";.	c #AFAFC6",
">.	c #AEAEC6",
",.	c #B9B7C9",
"'.	c #132D9E",
").	c #091D91",
"!.	c #091E91",
"~.	c #091E90",
"    . + @ # . .                 ",
"  $ % & % & & & $               ",
"* = = = - = ; = > , ' ) ' ! ,   ",
"~ { { { { { ] { ^ ^ ] { ^ { / ~ ",
"( _ _ _ _ _ _ _ : < [ [ [ [ [ [ ",
"} | | 1 | 1 2 3 4 5 6 7 8 7 9 0 ",
"a b c d [ [ [ e f 8 g h h i j k ",
"l m n o 7 8 8 p q r s t t t u v ",
"w x y z A A B C A A A A C D E F ",
"G H I J K K L K L L K K K M N O ",
"P Q R S T U U T T V T T V W X Y ",
"Z `  .7 7 7 7 7 7 7 7 7 7 ..+.  ",
"@.#.$.7 7 7 7 7 7 7 7 7 7 %.&.  ",
"*.=.-.;.>.>.>.>.>.>.>.>.>.,.'.  ",
"  ).).).).!.~.!.~.).~.~.!.!.).  ",
"                                "};
