/* XPM */
static const char *zerocross[]={
"32 32 3 1",
". c None",
"a c #808080",
"# c #ffffff",
".#####....................#####.",
"#aaaaa#..................#aaaaa#",
"#a#aaaa#................#aaaa#a#",
"#aa#aaaa#..............#aaaa#aa#",
"#aaa#aaaa#............#aaaa#aaa#",
"#aaaa#aaaa#..........#aaaa#aaaa#",
".#aaaa#aaaa#........#aaaa#aaaa#.",
"..#aaaa#aaaa#......#aaaa#aaaa#..",
"...#aaaa#aaaa#....#aaaa#aaaa#...",
"....#aaaa#aaaa#..#aaaa#aaaa#....",
".....#aaaa#aaaa##aaaa#aaaa#.....",
"......#aaaa#aaa##aaa#aaaa#......",
".......#aaaaaa#..#aaaaaa#.......",
"........#aaaa#....#aaaa#........",
".........#aa#......#aa#.........",
"..........##...##...##..........",
"..........##...##...##..........",
".........#aa#......#.a#.........",
"........#aaaa#....#aaaa#........",
".......#aaaaaa#..#aaaaaa#.......",
"......#aaaa#aaa##aaa#aaaa#......",
".....#aaaa#aaaa##aaaa#aaaa#.....",
"....#aaaa#aaaa#..#aaaa#aaaa#....",
"...#aaaa#aaaa#....#aaaa#aaaa#...",
"..#aaaa#aaaa#......#aaaa#aaaa#..",
".#aaaa#aaaa#........#aaaa#aaaa#.",
"#aaaa#aaaa#..........#aaaa#aaaa#",
"#aaa#aaaa#............#aaaa#aaa#",
"#aa#aaaa#..............#aaaa#aa#",
"#a#aaaa#................#aaaa#a#",
"#aaaaa#..................#aaaaa#",
".#####....................#####."};
